<svg xmlns="http://www.w3.org/2000/svg" xml:space="preserve" id="prefix__Layer_1" x="0" y="0" version="1.1" viewBox="0 0 406.9 120"><style>.prefix__st0{fill:#021d47}.prefix__st1{fill:#f65058}</style><path d="M117.3 70.8c-.5 2.4 1.2 3.6 4.3 5.6-.3.9-.5 1.7-.9 2.6-3.7-.2-5.8-.3-6.8 2-1 2.2.4 3.7 3.1 6.4-.4.8-.9 1.6-1.4 2.4-3.6-1-5.6-1.5-7.1.5-1.4 2-.4 3.8 1.7 6.9-.6.7-1.2 1.4-1.8 2-3.3-1.7-5.2-2.6-7-1-1.8 1.6-1.1 3.6.2 7.1-.7.6-1.5 1.1-2.2 1.6-2.9-2.3-4.5-3.6-6.7-2.4-2.1 1.2-1.8 3.3-1.3 7-.8.4-1.7.8-2.5 1.1-2.3-2.9-3.7-4.5-6-3.8-2.3.8-2.5 2.8-2.7 6.6l-2.7.6c-1.7-3.3-2.7-5.2-5.1-4.9-2.4.3-3 2.2-4 5.8h-2.7c-1-3.6-1.5-5.6-4-5.9-2.4-.3-3.4 1.6-5.1 4.9l-2.7-.6c-.2-3.7-.3-5.8-2.7-6.6-2.3-.8-3.7.8-6 3.7-.8-.4-1.7-.7-2.5-1.1.6-3.7.9-5.7-1.2-7-2.1-1.2-3.8 0-6.7 2.4-.7-.5-1.5-1.1-2.2-1.6 1.3-3.5 2.1-5.4.2-7.1-1.8-1.6-3.7-.7-7 .9-.3-.3-.6-.7-.9-1-.3-.3-.6-.7-.9-1 2-3.1 3.1-4.9 1.7-6.9-1.4-2-3.5-1.5-7.1-.5-.5-.8-.9-1.6-1.4-2.4 2.6-2.6 4.1-4.1 3.1-6.4-1-2.2-3.1-2.2-6.8-2-.3-.9-.6-1.7-.8-2.6 3.1-2 4.9-3.2 4.4-5.6-.5-2.4-2.6-2.8-6.2-3.4l-.3-2.7c3.5-1.3 5.4-2.1 5.4-4.6 0-2.4-1.9-3.2-5.4-4.6l.3-2.7c3.7-.6 5.7-.9 6.2-3.3s-1.2-3.6-4.3-5.6c.3-.9.5-1.7.9-2.6 3.7.2 5.8.3 6.8-2 1-2.2-.4-3.7-3.1-6.4.4-.8.9-1.6 1.4-2.4 3.6 1 5.6 1.5 7.1-.5 1.4-2 .4-3.8-1.7-6.9.6-.7 1.2-1.4 1.8-2 3.3 1.7 5.2 2.6 7 1 1.8-1.6 1.1-3.6-.2-7.1.7-.6 1.5-1.1 2.2-1.6 2.9 2.3 4.5 3.6 6.7 2.4 2.1-1.2 1.8-3.3 1.3-7 .8-.4 1.7-.8 2.5-1.1 2.3 2.9 3.7 4.5 6 3.8 2.3-.8 2.5-2.8 2.7-6.6l2.7-.6c1.7 3.4 2.7 5.3 5.1 5 2.4-.3 3-2.2 4-5.8h2.7c1 3.6 1.5 5.6 4 5.9 2.4.3 3.4-1.6 5.1-4.9l2.7.6c.2 3.7.3 5.8 2.7 6.6 2.3.8 3.7-.8 6-3.7.8.4 1.7.7 2.5 1.1-.6 3.7-.9 5.7 1.2 7 2.1 1.2 3.8 0 6.7-2.4.7.5 1.5 1.1 2.2 1.6-1.3 3.5-2.1 5.4-.2 7.1 1.8 1.6 3.7.7 7-.9.3.3.6.7.9 1 .3.3.6.7.9 1-2 3.1-3.1 4.9-1.7 6.9 1.4 2 3.5 1.5 7.1.5.5.8.9 1.6 1.4 2.4-2.6 2.6-4.1 4.1-3.1 6.4 1 2.2 3.1 2.2 6.8 2 .3.9.6 1.7.8 2.6-3.1 2-4.9 3.2-4.4 5.6.5 2.4 2.6 2.8 6.2 3.4l.3 2.7c-3.5 1.3-5.4 2.1-5.4 4.6 0 2.4 1.9 3.2 5.4 4.6l-.3 2.7c-3.6.5-5.7.8-6.2 3.2z" class="prefix__st0"/><path d="M99.5 70.1c-1.9 6.1-5.6 11.5-10.4 15.6l-9.3-15.9c5.3-2.7 8.9-8.1 8.9-14.5 0-8.7-6.9-15.8-15.6-16.2H53.6l-6.2 10.7h25.8c3 0 5.5 2.5 5.5 5.5s-2.5 5.5-5.5 5.5H54c-3.6 0-6.6 3-6.6 6.6V80H58v-8.4h10.4L80 91.3c-4 1.6-8.3 2.6-12.9 2.6-18.7 0-33.9-15.2-33.9-33.9s15.2-33.9 33.9-33.9c15.1 0 27.9 9.9 32.3 23.6l9.4-5.2c-6.3-16.9-22.6-29-41.7-29-24.6 0-44.5 19.9-44.5 44.5s19.9 44.5 44.5 44.5c19.1 0 35.4-12.1 41.7-29l-9.3-5.4z" class="prefix__st1"/><path d="m154 34.3-1.8 9.3-5.4.1 4.6-23.9 11.4-.2c4.5-.1 7.9 2.2 8 6.2.1 3.5-2.2 5.4-4.8 6.4.7.3 2.8 1.5 2 5.6-.6 2.6-.7 4.5-.5 5.6l-5.4.1c-.2-1.1-.2-2.5.4-5.4.5-2.7 0-3.8-2.6-3.8H154zm.8-4.3 5.6-.1c2.4 0 4.7-.8 4.6-3.4 0-1.7-1.2-2.7-3.5-2.6l-5.6.1-1.1 6zm25.8-10.4-2.7 13.8c-1 5 1.5 6.3 4.4 6.3 3.2-.1 5-1.1 6-6.4l2.7-13.8 5.4-.1-2.8 14.2c-1.5 7.8-4.7 10.3-12 10.5-5.5.1-10.9-2-9.2-10.8l2.6-13.5 5.6-.2zm20.9 16.6c.5 2.4 2.4 3.7 5.8 3.6 2.8 0 5-.9 4.9-3.1 0-1.7-1.2-2.5-5.1-3.4-6.2-1.5-8.5-3.1-8.5-6.5-.1-4.3 3.5-7.7 10-7.8 8-.1 10.1 4 10.3 6.9l-5.4.1c-.3-1.3-1.3-3-5.2-2.9-2.5 0-4 1.2-3.9 2.8 0 1.6 1.3 2.1 5.2 3 6.8 1.6 8.4 3.9 8.4 7.1.1 4.4-3.5 7.9-11.1 8-6.5.1-10.3-2.5-10.8-7.6l5.4-.2zm22.6-16.5 5.4-.1-1.7 9.1 10.6-.2 1.7-9.1 5.5-.1-4.6 24-5.5.1 2-10.4-10.6.2-2 10.4-5.4.1 4.6-24z" class="prefix__st0"/><path d="m251.5 27.9-4 .1.4-2.2 10.8-.2-.4 2.2-4 .1-1.9 9.7h-2.7l1.8-9.7zm19 2.7c.1 3.8-2.2 7.2-7 7.3-3.5.1-5.5-2.1-5.6-5.2-.1-3.4 2.1-7.2 7-7.3 3.4-.1 5.6 2 5.6 5.2zm-9.7 1.9c0 2.1 1 3.2 2.9 3.2 2.7 0 3.9-2.7 3.8-5.2 0-1.6-.8-3-2.9-3-2.6.1-3.8 2.7-3.8 5z" class="prefix__st1"/><path d="M296.7 35.7c-1.5 4.9-5.5 8.1-12 8.2-7.4.1-10.8-4.1-10.9-10.2-.1-7.6 4.9-14.6 13.7-14.8 6.3-.1 10.1 3.3 10.4 8.2l-5.8.1c-.2-1.5-1.3-4-5-4-5.2.1-7.5 5.4-7.4 10.1.1 3.3 1.3 6.3 5.5 6.2 2.9-.1 4.5-1.4 5.7-3.8h5.8zm8.7-1.4-1.8 9.3-5.4.1 4.6-23.9 11.4-.2c4.5-.1 7.9 2.2 8 6.2.1 3.5-2.2 5.4-4.8 6.4.7.3 2.8 1.5 2 5.6-.6 2.6-.7 4.5-.5 5.6l-5.4.1c-.2-1.1-.2-2.5.4-5.4.5-2.7 0-3.8-2.6-3.8h-5.9zm.8-4.3 5.6-.1c2.4 0 4.7-.8 4.6-3.4 0-1.7-1.2-2.7-3.5-2.6l-5.6.1-1.1 6zm25.2-10.4-2.7 13.8c-1 5 1.5 6.3 4.4 6.3 3.2-.1 5-1.1 6-6.4l2.7-13.8 5.4-.1-2.8 14.2c-1.5 7.8-4.7 10.3-12 10.5-5.5.1-10.9-2-9.2-10.8l2.6-13.5 5.6-.2zm20.8 16.6c.5 2.4 2.4 3.7 5.8 3.6 2.8 0 5-.9 4.9-3.1 0-1.7-1.2-2.5-5.1-3.4-6.2-1.5-8.5-3.1-8.5-6.5-.1-4.3 3.5-7.7 10-7.8 8-.1 10.1 4 10.3 6.9l-5.4.1c-.3-1.3-1.3-3-5.2-2.9-2.5 0-4 1.2-3.9 2.8 0 1.6 1.3 2.1 5.2 3 6.8 1.6 8.4 3.9 8.4 7.1.1 4.4-3.5 7.9-11.1 8-6.5.1-10.3-2.5-10.8-7.6l5.4-.2zm22.6-16.5 5.4-.1-1.7 9.1 10.6-.2 1.7-9.1 5.5-.1-4.6 23.9-5.5.1 2-10.4-10.6.2-2 10.4-5.4.1 4.6-23.9zM216 68.7c-1.5 4.9-5.5 8.1-12 8.2-7.4.1-10.8-4.1-10.9-10.2-.1-7.6 4.9-14.6 13.7-14.8 6.3-.1 10.1 3.3 10.4 8.2l-5.8.1c-.2-1.5-1.3-4-5-4-5.2.1-7.5 5.4-7.4 10.1.1 3.3 1.3 6.3 5.5 6.2 2.9-.1 4.5-1.4 5.7-3.8h5.8zm8.1 2.3-3.3 5.5-5.8.1 13.8-24.1 7-.1 5 23.8-5.6.1-1.1-5.5-10 .2zm9.2-4.6c-.9-5.1-1.5-8.2-1.7-10-.9 1.9-2.6 5.3-5.2 10.1l6.9-.1zm8.8 10.2 4.6-23.9 6.6-.1c4.4 10.1 6.2 14.1 7.1 16.9h.1c.3-2.5 1.2-7.3 1.9-11.2l1.2-5.9 5.1-.1-4.6 23.9-6.2.1c-1.5-3.5-6.4-15.6-7.2-18.3h-.1c-.4 3-1.1 6.6-1.9 10.9l-1.5 7.6-5.1.1zm50.4-7.9c-1.5 4.9-5.5 8.1-12 8.2-7.4.1-10.8-4.1-10.9-10.2-.1-7.6 4.9-14.6 13.7-14.8 6.3-.1 10.1 3.3 10.4 8.2l-5.8.1c-.2-1.5-1.3-4-5-4-5.2.1-7.5 5.4-7.4 10.1.1 3.3 1.3 6.3 5.5 6.2 2.9-.1 4.5-1.4 5.7-3.8h5.8zm21.5-2.6-12.7.2-1.1 5.7 14.6-.3-1.5 4.5-19.3.3 4.6-23.9 18.7-.3-.9 4.5-13.3.2-.9 4.8 12.7-.2-.9 4.5zm9.8 1.1-1.8 9.3-5.4.1 4.6-23.9 11.4-.2c4.5-.1 7.9 2.2 8 6.2.1 3.5-2.2 5.4-4.8 6.4.7.3 2.8 1.5 2 5.6-.6 2.6-.7 4.5-.5 5.6l-5.4.1c-.2-1.1-.2-2.5.4-5.4.5-2.7 0-3.8-2.6-3.8h-5.9zm.8-4.3 5.6-.1c2.4 0 4.7-.8 4.6-3.4 0-1.7-1.2-2.7-3.5-2.6l-5.6.1-1.1 6zM138.7 87.2h2.9c2.3 0 3.2 1.5 2.8 3.4-.3 1.3-1.1 1.9-1.8 2.1.9.4 1.5 1.4 1.2 2.9-.3 1.8-1.7 2.9-3.9 2.9h-3.6l2.4-11.3zm-.1 9.7h1.3c1 0 1.9-.4 2.1-1.7.2-1.2-.3-1.9-1.8-1.9h-.8l-.8 3.6zm2.1-5.1c1.2 0 1.7-.4 1.9-1.3.2-1-.2-1.6-1.4-1.6h-.9l-.6 2.9h1zm5.8 2.9c-.1.4-.1.8-.1 1.1 0 .8.3 1.3.9 1.3.7 0 1.1-.5 1.3-1h1.9c-.3 1.1-1.3 2.6-3.3 2.6-2.7 0-2.8-2.4-2.4-4.5.4-2.1 1.6-4.3 3.9-4.3 2.6 0 2.9 2.2 2.3 4.3l-.2.6h-4.3zm2.7-1.4c.1-.3.1-.6.1-.8 0-.6-.2-1.1-.9-1.1-.8 0-1.3.9-1.6 1.9h2.4zm3-.7c.4-1.8.5-2.3.5-2.7h1.9c0 .2-.1.6-.1.9.4-.6 1-1 2-1 1.3 0 2.1.9 1.7 2.9l-1.3 5.9H155l1.2-5.7c.2-.9 0-1.4-.7-1.4-.8 0-1.2.5-1.5 1.8l-1.1 5.3H151l1.2-6zm8.8 2.1c-.1.4-.1.8-.1 1.1 0 .8.3 1.3.9 1.3.7 0 1.1-.5 1.3-1h1.9c-.3 1.1-1.3 2.6-3.3 2.6-2.7 0-2.8-2.4-2.4-4.5.4-2.1 1.6-4.3 3.9-4.3 2.6 0 2.9 2.2 2.3 4.3l-.2.6H161zm2.7-1.4c.1-.3.1-.6.1-.8 0-.6-.2-1.1-.9-1.1-.8 0-1.3.9-1.6 1.9h2.4zm2.7 5.2 1.5-7.1h-1l.3-1.6h1l.2-.8c.3-1.6.9-2.5 2.6-2.5.3 0 .8.1.9.1l-.3 1.6c-.1 0-.3-.1-.4-.1-.6 0-.7.3-.8.9l-.2.8h1.2l-.3 1.6h-1.2l-1.5 7.1h-2zm6.1-8.6h1.9l-1.8 8.6h-1.9l1.8-8.6zm.7-3.2h1.9l-.4 2h-1.9l.4-2zm2.4 3.2h1.1l.5-2.1h1.9l-.5 2.1h1.3l-.3 1.6h-1.3l-1.1 4.9c-.1.5-.1.8.6.8.2 0 .5 0 .6-.1l-.3 1.4c-.4.1-1 .1-1.3.1-1.4 0-2-.5-1.6-2.1l1.1-5.1h-1.1l.4-1.5zm4.7 0h1.1l.5-2.1h1.9l-.5 2.1h1.3l-.3 1.6H183l-1.1 4.9c-.1.5-.1.8.6.8.2 0 .5 0 .6-.1l-.3 1.4c-.4.1-1 .1-1.3.1-1.4 0-2-.5-1.6-2.1l1.1-5.1h-1.1l.4-1.5zm5.7 0h1.9l-1.8 8.6h-1.9l1.8-8.6zm.7-3.2h1.9l-.4 2h-1.9l.4-2zm2.6 5.9c.4-1.8.5-2.3.5-2.7h1.9c0 .2-.1.6-.1.9.4-.6 1-1 2-1 1.3 0 2.1.9 1.7 2.9l-1.3 5.9h-1.9l1.2-5.7c.2-.9 0-1.4-.7-1.4-.8 0-1.2.5-1.5 1.8l-1.1 5.3h-1.9l1.2-6zm12.6 5c-.5 2.4-1.3 4.1-3.9 4.1-2.5 0-2.8-1.7-2.6-2.6h1.8c0 .5.2 1.1 1 1.1 1.1 0 1.4-.9 1.7-2.1l.1-.7c-.4.6-1.1.9-1.9.9-1.8 0-2.4-1.7-1.8-4.2.6-2.9 1.8-4.4 3.5-4.4 1.1 0 1.5.5 1.6 1 .1-.3.2-.7.2-.8h1.9c-.1.5-.3 1.4-.6 2.6l-1 5.1zm-3.6-3.4c-.4 2 0 2.6.8 2.6s1.4-.7 1.8-2.6c.5-2 .3-2.8-.7-2.8-.9 0-1.5.8-1.9 2.8zm13-7-1.6 7.6c-.2 1-.2 2.2 1.1 2.2 1.2 0 1.5-1.1 1.8-2.2l1.6-7.6h2l-1.6 7.7c-.4 2.1-1.2 3.7-3.9 3.7-2.6 0-3.3-1.7-2.8-3.7l1.6-7.7h1.8zm6.6 0h2.6c2.6 0 3.6 1.6 3.1 3.9-.5 2.1-2 2.9-3.9 2.9h-1.3l-.9 4.4h-2l2.4-11.2zm.9 5.2h1.1c1.1 0 1.7-.5 1.9-1.6.2-1.2-.2-2-1.3-2h-.9l-.8 3.6zm12.7 1.9c.4-1.9.9-4.2 1.2-5.4-.8 2.1-2.6 6.4-4 9.6h-1.8c.1-2.8.2-7.6.3-9.7h-.1c-.2 1.3-.7 3.7-1.1 5.7l-.9 4h-1.8l2.4-11.2h2.9c.1 2.7 0 6.3-.1 7.9.5-1.5 2.3-5.4 3.5-7.9h2.8l-2.4 11.2h-1.9l1-4.2zm10.3 1.1c-.4 1.3-1.2 3.3-3.7 3.3-2.4 0-3.5-1.9-2.5-6.2.7-3.1 2-5.5 4.5-5.5s2.9 1.9 2.7 3.2h-1.9c0-.6.1-1.6-1-1.6s-1.8 1.6-2.3 3.9c-.6 2.8-.5 4.4.7 4.4 1 0 1.5-1.2 1.6-1.7h1.9zm6.5-8.2h2l-.9 4.5h2.8l.9-4.5h2l-2.4 11.2h-2l1.1-5.1H249l-1.1 5.1h-2l2.4-11.2zm8.1 2.7h1.9l-1.8 8.6h-1.9l1.8-8.6zm.7-3.2h1.9l-.4 2h-1.9l.4-2zm1.4 11.8 2.5-11.8h1.9l-2.5 11.8h-1.9zm3.9 0 2.5-11.8h1.9l-2.5 11.8h-1.9zm5.2-6c.4-1.7.4-2.2.5-2.6h1.9c0 .1-.1.6-.1.9.5-.7 1.2-1 1.9-1 .9 0 1.4.4 1.5 1.1.5-.6 1.1-1.1 2.2-1.1 1.2 0 2.1.7 1.6 2.7l-1.3 6H274l1.3-5.9c.1-.7 0-1.2-.6-1.2-.8 0-1.2.6-1.4 1.7l-1.2 5.5h-1.9l1.3-5.9c.2-.8 0-1.2-.6-1.2-.7 0-1.2.5-1.4 1.7l-1.1 5.4h-1.9l1.1-6.1zm16.3 3.9c-.2.8-.4 1.6-.4 2.1h-1.9c0-.2.1-.5.1-.7-.4.6-.9.9-1.9.9-1.7 0-2.1-1.5-1.9-2.8.3-1.6 1.5-2.2 3-2.5.6-.1 1.1-.1 1.7-.2l.1-.6c.1-.7.1-1.4-.8-1.4-.6 0-.9.4-1.1 1.1H279c.3-1.3 1.1-2.5 3.1-2.5 1.9 0 2.9.9 2.5 3l-.7 3.6zm-1.5-1.8c-.4 0-.8.1-1.1.2-.7.2-1.2.5-1.4 1.2-.1.6 0 1.2.8 1.2.9 0 1.3-.7 1.6-2l.1-.6zm4.2-2c.4-1.8.5-2.3.5-2.7h1.9c0 .2-.1.6-.1.9.4-.6 1-1 2-1 1.3 0 2.1.9 1.7 2.9l-1.3 5.9h-1.9l1.2-5.7c.2-.9 0-1.4-.7-1.4-.8 0-1.2.5-1.5 1.8l-1.1 5.3h-1.9l1.2-6zm17.2 2.8c-.4 1.3-1.2 3.3-3.7 3.3-2.4 0-3.5-1.9-2.5-6.2.7-3.1 2-5.5 4.5-5.5s2.9 1.9 2.7 3.2h-1.9c0-.6.1-1.6-1-1.6s-1.8 1.6-2.3 3.9c-.6 2.8-.5 4.4.7 4.4 1 0 1.4-1.2 1.6-1.7h1.9zm6.7 1c-.2.8-.4 1.6-.4 2.1h-1.9c0-.2.1-.5.1-.7-.4.6-.9.9-1.9.9-1.7 0-2.1-1.5-1.9-2.8.3-1.6 1.5-2.2 3-2.5.6-.1 1.1-.1 1.7-.2l.1-.6c.1-.7.1-1.4-.8-1.4-.6 0-.9.4-1.1 1.1h-1.8c.3-1.3 1.1-2.5 3.1-2.5 1.9 0 2.9.9 2.5 3l-.7 3.6zm-1.5-1.8c-.4 0-.8.1-1.1.2-.7.2-1.2.5-1.4 1.2-.1.6 0 1.2.8 1.2.9 0 1.3-.7 1.6-2l.1-.6zm3.6-2c.4-1.8.5-2.3.5-2.7h1.9c0 .2-.1.6-.1.9.4-.6 1-1 2-1 1.3 0 2.1.9 1.7 2.9l-1.3 5.9h-1.9l1.2-5.7c.2-.9 0-1.4-.7-1.4-.8 0-1.2.5-1.5 1.8l-1.1 5.3h-1.9l1.2-6zm12.7 3.5c-.4 1.1-1.1 2.6-3.3 2.6-2.7 0-2.8-2.4-2.3-4.7.5-2.2 1.6-4.2 3.8-4.2 2.3 0 2.6 1.6 2.5 2.8h-2c.1-.8-.1-1.2-.7-1.2-.8 0-1.4 1.3-1.7 2.8-.3 1.4-.5 2.9.6 2.9.7 0 1-.6 1.2-1h1.9zm3.2-1.4c-.1.4-.1.8-.1 1.1 0 .8.3 1.3.9 1.3.7 0 1.1-.5 1.3-1h1.9c-.3 1.1-1.3 2.6-3.3 2.6-2.7 0-2.8-2.4-2.4-4.5.4-2.1 1.6-4.3 3.9-4.3 2.6 0 2.9 2.2 2.3 4.3l-.2.6h-4.3zm2.7-1.4c.1-.3.1-.6.1-.8 0-.6-.2-1.1-.9-1.1-.8 0-1.3.9-1.6 1.9h2.4zm3.6-.5c.3-1.4.5-2.3.6-2.9h1.8c0 .4-.1.6-.2 1.4.6-1.1 1.4-1.5 2.5-1.5l-.5 2.1c-1.4-.1-2.2.5-2.6 2.3l-.9 4.3h-1.9l1.2-5.7zm14.8 2.6c-.4 1.3-1.2 3.3-3.7 3.3-2.4 0-3.5-1.9-2.5-6.2.7-3.1 2-5.5 4.5-5.5s2.9 1.9 2.7 3.2h-1.9c0-.6.1-1.6-1-1.6s-1.8 1.6-2.3 3.9c-.6 2.8-.5 4.4.7 4.4 1 0 1.4-1.2 1.6-1.7h1.9zm2.9-.7c-.1.4-.1.8-.1 1.1 0 .8.3 1.3.9 1.3.7 0 1.1-.5 1.3-1h1.9c-.3 1.1-1.3 2.6-3.3 2.6-2.7 0-2.8-2.4-2.4-4.5.4-2.1 1.6-4.3 3.9-4.3 2.6 0 2.9 2.2 2.3 4.3l-.2.6h-4.3zm2.7-1.4c.1-.3.1-.6.1-.8 0-.6-.2-1.1-.9-1.1-.8 0-1.3.9-1.6 1.9h2.4zm3.4-.7c.4-1.8.5-2.3.5-2.7h1.9c0 .2-.1.6-.1.9.4-.6 1-1 2-1 1.3 0 2.1.9 1.7 2.9l-1.3 5.9h-1.9l1.2-5.7c.2-.9 0-1.4-.7-1.4-.8 0-1.2.5-1.5 1.8l-1.1 5.3h-1.9l1.2-6zm7.3-2.7h1.1l.5-2.1h1.9l-.5 2.1h1.3l-.3 1.6h-1.3l-1.1 4.9c-.1.5-.1.8.6.8.2 0 .5 0 .6-.1l-.3 1.4c-.4.1-1 .1-1.3.1-1.4 0-2-.5-1.6-2.1l1.1-5.1h-1.1l.4-1.5zm6.2 4.8c-.1.4-.1.8-.1 1.1 0 .8.3 1.3.9 1.3.7 0 1.1-.5 1.3-1h1.9c-.3 1.1-1.3 2.6-3.3 2.6-2.7 0-2.8-2.4-2.4-4.5.4-2.1 1.6-4.3 3.9-4.3 2.6 0 2.9 2.2 2.3 4.3l-.2.6h-4.3zm2.7-1.4c.1-.3.1-.6.1-.8 0-.6-.2-1.1-.9-1.1-.8 0-1.3.9-1.6 1.9h2.4zm3.6-.5c.3-1.4.5-2.3.6-2.9h1.8c0 .4-.1.6-.2 1.4.6-1.1 1.4-1.5 2.5-1.5l-.5 2.1c-1.4-.1-2.2.5-2.6 2.3l-.9 4.3h-1.9l1.2-5.7z" class="prefix__st0"/><path d="M189.1 54.1h-44.2l-.6 2.9h44.3zm-1.6 8.7-44.2-.1-.6 2.8 44.2.1zm-1.7 8.9h-44.2l-.5 2.9h44.2zm204-17.7h-42l-.6 2.8h42zm-1.7 8.6h-41.9l-.5 2.9h41.9zm-1.6 9h-42l-.5 2.9h41.9z" class="prefix__st1"/></svg>